<svg viewBox="0 0 800 450" xmlns="http://www.w3.org/2000/svg">
  <rect width="800" height="450" fill="#EDE9E0"/>
  <rect x="50" y="50" width="700" height="350" rx="12" fill="#FEFDFB" stroke="#D4CFC3" stroke-width="2"/>
  <!-- Circular arrows -->
  <circle cx="400" cy="225" r="100" fill="none" stroke="#2D5A3D" stroke-width="4" opacity="0.2"/>
  <path d="M400 125 A100 100 0 0 1 490 175" fill="none" stroke="#2D5A3D" stroke-width="4" stroke-linecap="round"/>
  <path d="M490 175 L480 160 M490 175 L475 180" stroke="#2D5A3D" stroke-width="3" stroke-linecap="round" stroke-linejoin="round"/>
  <path d="M490 275 A100 100 0 0 1 400 325" fill="none" stroke="#4A7C59" stroke-width="4" stroke-linecap="round"/>
  <path d="M400 325 L410 310 M400 325 L415 330" stroke="#4A7C59" stroke-width="3" stroke-linecap="round" stroke-linejoin="round"/>
  <path d="M310 175 A100 100 0 0 1 310 275" fill="none" stroke="#4A6F82" stroke-width="4" stroke-linecap="round"/>
  <path d="M310 275 L325 270 M310 275 L315 260" stroke="#4A6F82" stroke-width="3" stroke-linecap="round" stroke-linejoin="round"/>
  <!-- Labels -->
  <circle cx="445" cy="150" r="24" fill="#2D5A3D" opacity="0.15"/>
  <text x="445" y="155" text-anchor="middle" font-family="Inter, sans-serif" font-size="11" font-weight="600" fill="#2D5A3D">Prod.</text>
  <circle cx="445" cy="300" r="24" fill="#4A7C59" opacity="0.15"/>
  <text x="445" y="305" text-anchor="middle" font-family="Inter, sans-serif" font-size="11" font-weight="600" fill="#4A7C59">Usage</text>
  <circle cx="300" cy="225" r="24" fill="#4A6F82" opacity="0.15"/>
  <text x="300" y="230" text-anchor="middle" font-family="Inter, sans-serif" font-size="11" font-weight="600" fill="#4A6F82">Recy.</text>
</svg>
